# xmcd CD database file
#
# Track frame offsets:
#	150
#	24660
#	46142
#	52493
#	65897
#	93941
#	106553
#	118368
#	134540
#	151030
#	164412
#	174312
#	191071
#	210054
#	219586
#	241347
#
# Disc length: 3407 seconds
#
# Revision: 0
# Processed by: cddbd v1.4PL0 Copyright (c) Steve Scherf et al.
# Submitted via: CDex 1.51
#
DISCID=e00d4d10
DTITLE=Various Artist - Back To Blues  Disk 2
DYEAR=1990
DGENRE=Blues
TTITLE0=I Woke Up This Morning (Ten Years After)
TTITLE1=Full Time Lover (The Fabulous Thunderbirds)
TTITLE2=Choker (Eric Clapton and Jimmy Page)
TTITLE3=One Bourbon, One Scotch, One Beer (John Lee Hooker)
TTITLE4=Blach Magic Woman (Fleetwood Mac-Live)
TTITLE5=Some Poor Soul (Family)
TTITLE6=Steeled Blues (The Yardbirds)
TTITLE7=I Pu A Spell On You (Screaming Jay Hawkins)
TTITLE8=My Baby Just Cares For Me (Nina Simone)
TTITLE9=Nobody Wants You When You're Down And Out (Bobby Womack)
TTITLE10=Worried Life Blues (Chuck Berry)
TTITLE11=Cry Me A River (Aaron Neville)
TTITLE12=Telephone Blues (John Mayall and The Bluesbreakers)
TTITLE13=Sleep Walk (Leo Kottke)
TTITLE14=Take It Easy (Eric Burdon Band)
TTITLE15=Tell It Like It Is (Aaron Neville)
EXTD=YEAR: 1990
EXTT0=
EXTT1=
EXTT2=
EXTT3=
EXTT4=
EXTT5=
EXTT6=
EXTT7=
EXTT8=
EXTT9=
EXTT10=
EXTT11=
EXTT12=
EXTT13=
EXTT14=
EXTT15=
PLAYORDER=
